<mxfile host="app.diagrams.net" modified="2021-05-11T11:54:46.712Z" agent="5.0 (Windows NT 10.0; Win64; x64) AppleWebKit/537.36 (KHTML, like Gecko) Chrome/90.0.4430.93 Safari/537.36" etag="pnmR4JeI9EvCrovn61Do" version="14.6.11" type="github">
  <diagram name="Page-1" id="e7e014a7-5840-1c2e-5031-d8a46d1fe8dd">
    <mxGraphModel dx="2370" dy="1323" grid="1" gridSize="10" guides="1" tooltips="1" connect="1" arrows="1" fold="1" page="1" pageScale="1" pageWidth="1169" pageHeight="826" background="#ffffff" math="0" shadow="0">
      <root>
        <mxCell id="0" />
        <mxCell id="1" parent="0" />
        <mxCell id="J_OxuVLnSDbP4lyqpmxo-41" value="" style="edgeStyle=orthogonalEdgeStyle;rounded=0;orthogonalLoop=1;jettySize=auto;html=1;" edge="1" parent="1" source="J_OxuVLnSDbP4lyqpmxo-42" target="J_OxuVLnSDbP4lyqpmxo-47">
          <mxGeometry relative="1" as="geometry">
            <mxPoint x="904.5" y="1058" as="targetPoint" />
          </mxGeometry>
        </mxCell>
        <mxCell id="J_OxuVLnSDbP4lyqpmxo-42" value="&lt;font style=&quot;vertical-align: inherit&quot;&gt;&lt;font style=&quot;vertical-align: inherit&quot;&gt;学员管理&lt;/font&gt;&lt;/font&gt;" style="rounded=1;whiteSpace=wrap;html=1;fontSize=12;glass=0;strokeWidth=1;shadow=0;" vertex="1" parent="1">
          <mxGeometry x="1074.5" y="740" width="120" height="40" as="geometry" />
        </mxCell>
        <mxCell id="J_OxuVLnSDbP4lyqpmxo-43" value="&lt;span style=&quot;color: rgba(0 , 0 , 0 , 0.85) ; font-family: , &amp;#34;blinkmacsystemfont&amp;#34; , &amp;#34;segoe ui&amp;#34; , &amp;#34;pingfang sc&amp;#34; , &amp;#34;hiragino sans gb&amp;#34; , &amp;#34;microsoft yahei&amp;#34; , &amp;#34;helvetica neue&amp;#34; , &amp;#34;helvetica&amp;#34; , &amp;#34;arial&amp;#34; , sans-serif , &amp;#34;apple color emoji&amp;#34; , &amp;#34;segoe ui emoji&amp;#34; , &amp;#34;segoe ui symbol&amp;#34; ; font-size: 14px ; text-align: right ; background-color: rgb(255 , 255 , 255)&quot;&gt;&lt;font style=&quot;vertical-align: inherit&quot;&gt;&lt;font style=&quot;vertical-align: inherit&quot;&gt;&lt;font style=&quot;vertical-align: inherit&quot;&gt;&lt;font style=&quot;vertical-align: inherit&quot;&gt;&lt;font style=&quot;vertical-align: inherit&quot;&gt;&lt;font style=&quot;vertical-align: inherit&quot;&gt;&lt;font style=&quot;vertical-align: inherit&quot;&gt;&lt;font style=&quot;vertical-align: inherit&quot;&gt;&lt;font style=&quot;vertical-align: inherit&quot;&gt;&lt;font style=&quot;vertical-align: inherit&quot;&gt;读卡器读取&lt;/font&gt;&lt;/font&gt;&lt;/font&gt;&lt;/font&gt;&lt;/font&gt;&lt;/font&gt;&lt;/font&gt;&lt;/font&gt;&lt;/font&gt;&lt;/font&gt;&lt;/span&gt;" style="rhombus;whiteSpace=wrap;html=1;shadow=0;fontFamily=Helvetica;fontSize=12;align=center;strokeWidth=1;spacing=6;spacingTop=-4;" vertex="1" parent="1">
          <mxGeometry x="470" y="1196" width="220" height="80" as="geometry" />
        </mxCell>
        <mxCell id="J_OxuVLnSDbP4lyqpmxo-44" style="edgeStyle=orthogonalEdgeStyle;rounded=0;orthogonalLoop=1;jettySize=auto;html=1;entryX=1;entryY=0.5;entryDx=0;entryDy=0;exitX=1;exitY=0.5;exitDx=0;exitDy=0;" edge="1" parent="1" source="J_OxuVLnSDbP4lyqpmxo-46" target="J_OxuVLnSDbP4lyqpmxo-65">
          <mxGeometry relative="1" as="geometry">
            <mxPoint x="1209" y="1457" as="targetPoint" />
            <Array as="points">
              <mxPoint x="1159" y="1320" />
            </Array>
          </mxGeometry>
        </mxCell>
        <mxCell id="J_OxuVLnSDbP4lyqpmxo-45" value="重拍" style="edgeLabel;html=1;align=center;verticalAlign=middle;resizable=0;points=[];" vertex="1" connectable="0" parent="J_OxuVLnSDbP4lyqpmxo-44">
          <mxGeometry x="-0.1522" y="3" relative="1" as="geometry">
            <mxPoint as="offset" />
          </mxGeometry>
        </mxCell>
        <mxCell id="J_OxuVLnSDbP4lyqpmxo-46" value="是否确认" style="rhombus;whiteSpace=wrap;html=1;shadow=0;fontFamily=Helvetica;fontSize=12;align=center;strokeWidth=1;spacing=6;spacingTop=-4;" vertex="1" parent="1">
          <mxGeometry x="979" y="1375" width="180" height="80" as="geometry" />
        </mxCell>
        <mxCell id="J_OxuVLnSDbP4lyqpmxo-47" value="点击新增" style="rounded=0;whiteSpace=wrap;html=1;" vertex="1" parent="1">
          <mxGeometry x="1074.5" y="857" width="120" height="42.5" as="geometry" />
        </mxCell>
        <mxCell id="J_OxuVLnSDbP4lyqpmxo-48" value="" style="endArrow=classic;html=1;entryX=0.5;entryY=0;entryDx=0;entryDy=0;" edge="1" parent="1" target="J_OxuVLnSDbP4lyqpmxo-50">
          <mxGeometry width="50" height="50" relative="1" as="geometry">
            <mxPoint x="829" y="1145" as="sourcePoint" />
            <mxPoint x="1049" y="1145" as="targetPoint" />
            <Array as="points">
              <mxPoint x="1069" y="1145" />
            </Array>
          </mxGeometry>
        </mxCell>
        <mxCell id="J_OxuVLnSDbP4lyqpmxo-49" value="" style="edgeStyle=orthogonalEdgeStyle;rounded=0;orthogonalLoop=1;jettySize=auto;html=1;" edge="1" parent="1" source="J_OxuVLnSDbP4lyqpmxo-50" target="J_OxuVLnSDbP4lyqpmxo-65">
          <mxGeometry relative="1" as="geometry" />
        </mxCell>
        <mxCell id="J_OxuVLnSDbP4lyqpmxo-50" value="拍照获取人像照" style="rounded=0;whiteSpace=wrap;html=1;" vertex="1" parent="1">
          <mxGeometry x="1009" y="1206" width="120" height="60" as="geometry" />
        </mxCell>
        <mxCell id="J_OxuVLnSDbP4lyqpmxo-51" value="" style="endArrow=classic;html=1;entryX=0.5;entryY=0;entryDx=0;entryDy=0;" edge="1" parent="1" target="J_OxuVLnSDbP4lyqpmxo-43">
          <mxGeometry width="50" height="50" relative="1" as="geometry">
            <mxPoint x="829" y="1145" as="sourcePoint" />
            <mxPoint x="1049" y="1255" as="targetPoint" />
            <Array as="points">
              <mxPoint x="579" y="1145" />
            </Array>
          </mxGeometry>
        </mxCell>
        <mxCell id="J_OxuVLnSDbP4lyqpmxo-52" value="" style="endArrow=classic;html=1;exitX=0.5;exitY=1;exitDx=0;exitDy=0;" edge="1" parent="1" source="J_OxuVLnSDbP4lyqpmxo-43" target="J_OxuVLnSDbP4lyqpmxo-55">
          <mxGeometry width="50" height="50" relative="1" as="geometry">
            <mxPoint x="959" y="1355" as="sourcePoint" />
            <mxPoint x="1009" y="1305" as="targetPoint" />
          </mxGeometry>
        </mxCell>
        <mxCell id="J_OxuVLnSDbP4lyqpmxo-53" value="是" style="edgeLabel;html=1;align=center;verticalAlign=middle;resizable=0;points=[];" vertex="1" connectable="0" parent="J_OxuVLnSDbP4lyqpmxo-52">
          <mxGeometry x="-0.5" y="1" relative="1" as="geometry">
            <mxPoint as="offset" />
          </mxGeometry>
        </mxCell>
        <mxCell id="J_OxuVLnSDbP4lyqpmxo-54" value="" style="edgeStyle=orthogonalEdgeStyle;rounded=0;orthogonalLoop=1;jettySize=auto;html=1;" edge="1" parent="1" source="J_OxuVLnSDbP4lyqpmxo-55" target="J_OxuVLnSDbP4lyqpmxo-73">
          <mxGeometry relative="1" as="geometry" />
        </mxCell>
        <mxCell id="J_OxuVLnSDbP4lyqpmxo-55" value="将身份证放置于读卡器（&lt;font color=&quot;#ff3333&quot;&gt;该步骤，必填字段自动获取&lt;/font&gt;）" style="rounded=0;whiteSpace=wrap;html=1;" vertex="1" parent="1">
          <mxGeometry x="501" y="1338" width="156" height="60" as="geometry" />
        </mxCell>
        <mxCell id="J_OxuVLnSDbP4lyqpmxo-56" value="" style="endArrow=classic;html=1;entryX=1;entryY=0.5;entryDx=0;entryDy=0;" edge="1" parent="1" source="J_OxuVLnSDbP4lyqpmxo-43" target="J_OxuVLnSDbP4lyqpmxo-59">
          <mxGeometry width="50" height="50" relative="1" as="geometry">
            <mxPoint x="959" y="1355" as="sourcePoint" />
            <mxPoint x="749" y="1235" as="targetPoint" />
          </mxGeometry>
        </mxCell>
        <mxCell id="J_OxuVLnSDbP4lyqpmxo-57" value="否" style="edgeLabel;html=1;align=center;verticalAlign=middle;resizable=0;points=[];" vertex="1" connectable="0" parent="J_OxuVLnSDbP4lyqpmxo-56">
          <mxGeometry x="-0.4333" y="-2" relative="1" as="geometry">
            <mxPoint x="-27" y="2" as="offset" />
          </mxGeometry>
        </mxCell>
        <mxCell id="J_OxuVLnSDbP4lyqpmxo-58" style="edgeStyle=orthogonalEdgeStyle;rounded=0;orthogonalLoop=1;jettySize=auto;html=1;entryX=0.5;entryY=0;entryDx=0;entryDy=0;exitX=0.5;exitY=1;exitDx=0;exitDy=0;" edge="1" parent="1" source="J_OxuVLnSDbP4lyqpmxo-59" target="J_OxuVLnSDbP4lyqpmxo-71">
          <mxGeometry relative="1" as="geometry">
            <mxPoint x="393.97" y="1415.25" as="targetPoint" />
            <Array as="points">
              <mxPoint x="325" y="1364" />
              <mxPoint x="325" y="1364" />
            </Array>
          </mxGeometry>
        </mxCell>
        <mxCell id="J_OxuVLnSDbP4lyqpmxo-59" value="手动上传身份证（证件照）" style="rounded=0;whiteSpace=wrap;html=1;" vertex="1" parent="1">
          <mxGeometry x="265" y="1206" width="120" height="60" as="geometry" />
        </mxCell>
        <mxCell id="J_OxuVLnSDbP4lyqpmxo-60" style="edgeStyle=orthogonalEdgeStyle;rounded=0;orthogonalLoop=1;jettySize=auto;html=1;exitX=0.5;exitY=1;exitDx=0;exitDy=0;" edge="1" parent="1" source="J_OxuVLnSDbP4lyqpmxo-61" target="J_OxuVLnSDbP4lyqpmxo-67">
          <mxGeometry relative="1" as="geometry">
            <mxPoint x="1154" y="1768" as="sourcePoint" />
            <mxPoint x="809" y="1818" as="targetPoint" />
            <Array as="points">
              <mxPoint x="1069" y="1845" />
              <mxPoint x="813" y="1845" />
            </Array>
          </mxGeometry>
        </mxCell>
        <mxCell id="J_OxuVLnSDbP4lyqpmxo-61" value="展示人像照片" style="rounded=0;whiteSpace=wrap;html=1;" vertex="1" parent="1">
          <mxGeometry x="1009" y="1728" width="120" height="80" as="geometry" />
        </mxCell>
        <mxCell id="J_OxuVLnSDbP4lyqpmxo-62" value="" style="endArrow=classic;html=1;exitX=0.5;exitY=1;exitDx=0;exitDy=0;" edge="1" parent="1" source="J_OxuVLnSDbP4lyqpmxo-46" target="J_OxuVLnSDbP4lyqpmxo-81">
          <mxGeometry width="50" height="50" relative="1" as="geometry">
            <mxPoint x="959" y="1457" as="sourcePoint" />
            <mxPoint x="1069" y="1520" as="targetPoint" />
          </mxGeometry>
        </mxCell>
        <mxCell id="J_OxuVLnSDbP4lyqpmxo-63" value="确认" style="edgeLabel;html=1;align=center;verticalAlign=middle;resizable=0;points=[];" vertex="1" connectable="0" parent="J_OxuVLnSDbP4lyqpmxo-62">
          <mxGeometry x="-0.4" relative="1" as="geometry">
            <mxPoint as="offset" />
          </mxGeometry>
        </mxCell>
        <mxCell id="J_OxuVLnSDbP4lyqpmxo-64" value="" style="edgeStyle=orthogonalEdgeStyle;rounded=0;orthogonalLoop=1;jettySize=auto;html=1;" edge="1" parent="1" source="J_OxuVLnSDbP4lyqpmxo-65" target="J_OxuVLnSDbP4lyqpmxo-46">
          <mxGeometry relative="1" as="geometry" />
        </mxCell>
        <mxCell id="J_OxuVLnSDbP4lyqpmxo-65" value="点击拍照按钮" style="rounded=0;whiteSpace=wrap;html=1;" vertex="1" parent="1">
          <mxGeometry x="1009" y="1295" width="120" height="50" as="geometry" />
        </mxCell>
        <mxCell id="J_OxuVLnSDbP4lyqpmxo-66" value="" style="edgeStyle=orthogonalEdgeStyle;rounded=0;orthogonalLoop=1;jettySize=auto;html=1;" edge="1" parent="1" source="J_OxuVLnSDbP4lyqpmxo-67" target="J_OxuVLnSDbP4lyqpmxo-68">
          <mxGeometry relative="1" as="geometry" />
        </mxCell>
        <mxCell id="J_OxuVLnSDbP4lyqpmxo-67" value="获取两张图片url到进行人脸比对" style="rounded=0;whiteSpace=wrap;html=1;" vertex="1" parent="1">
          <mxGeometry x="764" y="1910" width="120" height="60" as="geometry" />
        </mxCell>
        <mxCell id="J_OxuVLnSDbP4lyqpmxo-68" value="相似度&amp;gt;70%" style="rhombus;whiteSpace=wrap;html=1;shadow=0;fontFamily=Helvetica;fontSize=12;align=center;strokeWidth=1;spacing=6;spacingTop=-4;" vertex="1" parent="1">
          <mxGeometry x="714" y="2014" width="220" height="80" as="geometry" />
        </mxCell>
        <mxCell id="J_OxuVLnSDbP4lyqpmxo-69" value="" style="edgeStyle=orthogonalEdgeStyle;rounded=0;orthogonalLoop=1;jettySize=auto;html=1;exitX=0;exitY=0.5;exitDx=0;exitDy=0;entryX=0;entryY=0.5;entryDx=0;entryDy=0;" edge="1" parent="1" source="J_OxuVLnSDbP4lyqpmxo-71" target="J_OxuVLnSDbP4lyqpmxo-59">
          <mxGeometry relative="1" as="geometry">
            <mxPoint x="265" y="1226" as="targetPoint" />
            <Array as="points">
              <mxPoint x="200" y="1472" />
              <mxPoint x="200" y="1236" />
            </Array>
          </mxGeometry>
        </mxCell>
        <mxCell id="J_OxuVLnSDbP4lyqpmxo-70" value="否" style="edgeLabel;html=1;align=center;verticalAlign=middle;resizable=0;points=[];" vertex="1" connectable="0" parent="J_OxuVLnSDbP4lyqpmxo-69">
          <mxGeometry x="-0.024" relative="1" as="geometry">
            <mxPoint as="offset" />
          </mxGeometry>
        </mxCell>
        <mxCell id="J_OxuVLnSDbP4lyqpmxo-71" value="判断身份图片中是否有人脸" style="rhombus;whiteSpace=wrap;html=1;rounded=0;" vertex="1" parent="1">
          <mxGeometry x="239" y="1425.25" width="172" height="93.5" as="geometry" />
        </mxCell>
        <mxCell id="J_OxuVLnSDbP4lyqpmxo-72" value="" style="edgeStyle=orthogonalEdgeStyle;rounded=0;orthogonalLoop=1;jettySize=auto;html=1;" edge="1" parent="1" source="J_OxuVLnSDbP4lyqpmxo-73" target="J_OxuVLnSDbP4lyqpmxo-71">
          <mxGeometry relative="1" as="geometry" />
        </mxCell>
        <mxCell id="J_OxuVLnSDbP4lyqpmxo-73" value="&lt;span&gt;获取身份证照片&lt;/span&gt;" style="rounded=0;whiteSpace=wrap;html=1;" vertex="1" parent="1">
          <mxGeometry x="519" y="1442" width="120" height="60" as="geometry" />
        </mxCell>
        <mxCell id="J_OxuVLnSDbP4lyqpmxo-74" value="" style="endArrow=classic;html=1;exitX=0.5;exitY=1;exitDx=0;exitDy=0;" edge="1" parent="1" source="J_OxuVLnSDbP4lyqpmxo-71" target="J_OxuVLnSDbP4lyqpmxo-76">
          <mxGeometry width="50" height="50" relative="1" as="geometry">
            <mxPoint x="320.97" y="1508.75" as="sourcePoint" />
            <mxPoint x="320.97" y="1627" as="targetPoint" />
          </mxGeometry>
        </mxCell>
        <mxCell id="J_OxuVLnSDbP4lyqpmxo-75" value="是" style="edgeLabel;html=1;align=center;verticalAlign=middle;resizable=0;points=[];" vertex="1" connectable="0" parent="J_OxuVLnSDbP4lyqpmxo-74">
          <mxGeometry x="-0.4272" y="2" relative="1" as="geometry">
            <mxPoint as="offset" />
          </mxGeometry>
        </mxCell>
        <mxCell id="J_OxuVLnSDbP4lyqpmxo-76" value="展示身份证照片" style="rounded=0;whiteSpace=wrap;html=1;" vertex="1" parent="1">
          <mxGeometry x="265" y="1728" width="120" height="70" as="geometry" />
        </mxCell>
        <mxCell id="J_OxuVLnSDbP4lyqpmxo-77" value="判断拍摄图片中是否有人脸" style="rhombus;whiteSpace=wrap;html=1;rounded=0;" vertex="1" parent="1">
          <mxGeometry x="983" y="1580" width="172" height="109" as="geometry" />
        </mxCell>
        <mxCell id="J_OxuVLnSDbP4lyqpmxo-78" value="" style="endArrow=classic;html=1;exitX=0.5;exitY=1;exitDx=0;exitDy=0;" edge="1" parent="1" source="J_OxuVLnSDbP4lyqpmxo-77" target="J_OxuVLnSDbP4lyqpmxo-61">
          <mxGeometry width="50" height="50" relative="1" as="geometry">
            <mxPoint x="822" y="1543.5" as="sourcePoint" />
            <mxPoint x="822" y="1650" as="targetPoint" />
          </mxGeometry>
        </mxCell>
        <mxCell id="J_OxuVLnSDbP4lyqpmxo-79" value="是" style="edgeLabel;html=1;align=center;verticalAlign=middle;resizable=0;points=[];" vertex="1" connectable="0" parent="J_OxuVLnSDbP4lyqpmxo-78">
          <mxGeometry x="-0.4272" y="2" relative="1" as="geometry">
            <mxPoint as="offset" />
          </mxGeometry>
        </mxCell>
        <mxCell id="J_OxuVLnSDbP4lyqpmxo-80" value="" style="edgeStyle=orthogonalEdgeStyle;rounded=0;orthogonalLoop=1;jettySize=auto;html=1;" edge="1" parent="1" source="J_OxuVLnSDbP4lyqpmxo-81" target="J_OxuVLnSDbP4lyqpmxo-77">
          <mxGeometry relative="1" as="geometry" />
        </mxCell>
        <mxCell id="J_OxuVLnSDbP4lyqpmxo-81" value="&lt;span&gt;关闭拍摄界面&lt;/span&gt;" style="rounded=0;whiteSpace=wrap;html=1;" vertex="1" parent="1">
          <mxGeometry x="1009" y="1490" width="120" height="60" as="geometry" />
        </mxCell>
        <mxCell id="J_OxuVLnSDbP4lyqpmxo-82" value="" style="endArrow=classic;html=1;exitX=1;exitY=0.5;exitDx=0;exitDy=0;entryX=1;entryY=0.5;entryDx=0;entryDy=0;" edge="1" parent="1" source="J_OxuVLnSDbP4lyqpmxo-77" target="J_OxuVLnSDbP4lyqpmxo-50">
          <mxGeometry width="50" height="50" relative="1" as="geometry">
            <mxPoint x="816" y="1570" as="sourcePoint" />
            <mxPoint x="1232" y="1247" as="targetPoint" />
            <Array as="points">
              <mxPoint x="1258" y="1637" />
              <mxPoint x="1258" y="1236" />
            </Array>
          </mxGeometry>
        </mxCell>
        <mxCell id="J_OxuVLnSDbP4lyqpmxo-83" value="否" style="edgeLabel;html=1;align=center;verticalAlign=middle;resizable=0;points=[];" vertex="1" connectable="0" parent="J_OxuVLnSDbP4lyqpmxo-82">
          <mxGeometry x="0.3207" relative="1" as="geometry">
            <mxPoint as="offset" />
          </mxGeometry>
        </mxCell>
        <mxCell id="J_OxuVLnSDbP4lyqpmxo-84" style="edgeStyle=orthogonalEdgeStyle;rounded=0;orthogonalLoop=1;jettySize=auto;html=1;exitX=0.5;exitY=1;exitDx=0;exitDy=0;" edge="1" parent="1" source="J_OxuVLnSDbP4lyqpmxo-76" target="J_OxuVLnSDbP4lyqpmxo-67">
          <mxGeometry relative="1" as="geometry">
            <mxPoint x="593.97" y="1811" as="sourcePoint" />
            <mxPoint x="374.97" y="1887" as="targetPoint" />
            <Array as="points">
              <mxPoint x="325" y="1845" />
              <mxPoint x="813" y="1845" />
            </Array>
          </mxGeometry>
        </mxCell>
        <mxCell id="J_OxuVLnSDbP4lyqpmxo-85" value="" style="endArrow=classic;html=1;exitX=0.5;exitY=1;exitDx=0;exitDy=0;entryX=0.5;entryY=0;entryDx=0;entryDy=0;" edge="1" parent="1" source="J_OxuVLnSDbP4lyqpmxo-68" target="J_OxuVLnSDbP4lyqpmxo-90">
          <mxGeometry width="50" height="50" relative="1" as="geometry">
            <mxPoint x="816" y="2194" as="sourcePoint" />
            <mxPoint x="822.4999999999995" y="2196.0000000000005" as="targetPoint" />
            <Array as="points">
              <mxPoint x="820" y="2380" />
              <mxPoint x="1188" y="2380" />
            </Array>
          </mxGeometry>
        </mxCell>
        <mxCell id="J_OxuVLnSDbP4lyqpmxo-86" value="是" style="edgeLabel;html=1;align=center;verticalAlign=middle;resizable=0;points=[];" vertex="1" connectable="0" parent="J_OxuVLnSDbP4lyqpmxo-85">
          <mxGeometry x="-0.0993" y="4" relative="1" as="geometry">
            <mxPoint x="-4" as="offset" />
          </mxGeometry>
        </mxCell>
        <mxCell id="J_OxuVLnSDbP4lyqpmxo-87" value="" style="endArrow=classic;html=1;exitX=1;exitY=0.5;exitDx=0;exitDy=0;entryX=1;entryY=0.5;entryDx=0;entryDy=0;" edge="1" parent="1" source="J_OxuVLnSDbP4lyqpmxo-68" target="J_OxuVLnSDbP4lyqpmxo-50">
          <mxGeometry width="50" height="50" relative="1" as="geometry">
            <mxPoint x="816" y="2194" as="sourcePoint" />
            <mxPoint x="1466" y="1117" as="targetPoint" />
            <Array as="points">
              <mxPoint x="1466" y="2054" />
              <mxPoint x="1466" y="1236" />
            </Array>
          </mxGeometry>
        </mxCell>
        <mxCell id="J_OxuVLnSDbP4lyqpmxo-88" value="否" style="edgeLabel;html=1;align=center;verticalAlign=middle;resizable=0;points=[];" vertex="1" connectable="0" parent="J_OxuVLnSDbP4lyqpmxo-87">
          <mxGeometry x="0.4757" relative="1" as="geometry">
            <mxPoint as="offset" />
          </mxGeometry>
        </mxCell>
        <mxCell id="J_OxuVLnSDbP4lyqpmxo-89" value="" style="edgeStyle=orthogonalEdgeStyle;rounded=0;orthogonalLoop=1;jettySize=auto;html=1;" edge="1" parent="1" source="J_OxuVLnSDbP4lyqpmxo-90" target="J_OxuVLnSDbP4lyqpmxo-91">
          <mxGeometry relative="1" as="geometry" />
        </mxCell>
        <mxCell id="J_OxuVLnSDbP4lyqpmxo-90" value="点击确认表单" style="rounded=0;whiteSpace=wrap;html=1;" vertex="1" parent="1">
          <mxGeometry x="1127.5" y="2540" width="120" height="47" as="geometry" />
        </mxCell>
        <mxCell id="J_OxuVLnSDbP4lyqpmxo-91" value="是否成功提交表单" style="rhombus;whiteSpace=wrap;html=1;rounded=0;" vertex="1" parent="1">
          <mxGeometry x="1060" y="2646" width="255" height="80" as="geometry" />
        </mxCell>
        <mxCell id="J_OxuVLnSDbP4lyqpmxo-92" value="" style="endArrow=classic;html=1;exitX=0.5;exitY=1;exitDx=0;exitDy=0;" edge="1" parent="1" source="J_OxuVLnSDbP4lyqpmxo-91">
          <mxGeometry width="50" height="50" relative="1" as="geometry">
            <mxPoint x="1241.5" y="2579" as="sourcePoint" />
            <mxPoint x="1187.5" y="2854" as="targetPoint" />
          </mxGeometry>
        </mxCell>
        <mxCell id="J_OxuVLnSDbP4lyqpmxo-93" value="是" style="edgeLabel;html=1;align=center;verticalAlign=middle;resizable=0;points=[];" vertex="1" connectable="0" parent="J_OxuVLnSDbP4lyqpmxo-92">
          <mxGeometry x="-0.7217" y="3" relative="1" as="geometry">
            <mxPoint x="-3" y="21" as="offset" />
          </mxGeometry>
        </mxCell>
        <mxCell id="J_OxuVLnSDbP4lyqpmxo-94" value="" style="endArrow=classic;html=1;exitX=1;exitY=0.5;exitDx=0;exitDy=0;" edge="1" parent="1" source="J_OxuVLnSDbP4lyqpmxo-91">
          <mxGeometry width="50" height="50" relative="1" as="geometry">
            <mxPoint x="1241.5" y="2579" as="sourcePoint" />
            <mxPoint x="1452.5" y="2686" as="targetPoint" />
            <Array as="points">
              <mxPoint x="1439.5" y="2686" />
              <mxPoint x="1426.5" y="2686" />
            </Array>
          </mxGeometry>
        </mxCell>
        <mxCell id="J_OxuVLnSDbP4lyqpmxo-95" value="否" style="edgeLabel;html=1;align=center;verticalAlign=middle;resizable=0;points=[];" vertex="1" connectable="0" parent="J_OxuVLnSDbP4lyqpmxo-94">
          <mxGeometry x="-0.4848" y="1" relative="1" as="geometry">
            <mxPoint x="5" y="1" as="offset" />
          </mxGeometry>
        </mxCell>
        <mxCell id="J_OxuVLnSDbP4lyqpmxo-98" value="新增成功" style="rounded=1;whiteSpace=wrap;html=1;" vertex="1" parent="1">
          <mxGeometry x="1127.5" y="2854" width="120" height="60" as="geometry" />
        </mxCell>
        <mxCell id="J_OxuVLnSDbP4lyqpmxo-99" value="提示错误信息" style="rounded=0;whiteSpace=wrap;html=1;" vertex="1" parent="1">
          <mxGeometry x="1452.5" y="2664" width="120" height="44" as="geometry" />
        </mxCell>
        <mxCell id="J_OxuVLnSDbP4lyqpmxo-100" value="填写表单字段（&lt;font color=&quot;#ff3333&quot;&gt;学员姓名，身份证号，身份证照片，人像照，性别，生日，户籍&lt;/font&gt;，联系电话，所属驾校，注册时间）&lt;br&gt;&lt;div style=&quot;text-align: left&quot;&gt;&lt;span&gt;注：红色为必填字段，注册时间自动获取&lt;/span&gt;&lt;/div&gt;" style="rounded=0;whiteSpace=wrap;html=1;" vertex="1" parent="1">
          <mxGeometry x="1024" y="974" width="221" height="78" as="geometry" />
        </mxCell>
        <mxCell id="J_OxuVLnSDbP4lyqpmxo-101" value="" style="endArrow=classic;html=1;exitX=0.5;exitY=1;exitDx=0;exitDy=0;entryX=0.5;entryY=0;entryDx=0;entryDy=0;" edge="1" parent="1" source="J_OxuVLnSDbP4lyqpmxo-47" target="J_OxuVLnSDbP4lyqpmxo-100">
          <mxGeometry width="50" height="50" relative="1" as="geometry">
            <mxPoint x="1056.5" y="816" as="sourcePoint" />
            <mxPoint x="1106.5" y="766" as="targetPoint" />
          </mxGeometry>
        </mxCell>
        <mxCell id="J_OxuVLnSDbP4lyqpmxo-102" value="" style="endArrow=classic;html=1;exitX=0.5;exitY=1;exitDx=0;exitDy=0;" edge="1" parent="1" source="J_OxuVLnSDbP4lyqpmxo-100">
          <mxGeometry width="50" height="50" relative="1" as="geometry">
            <mxPoint x="751" y="1102" as="sourcePoint" />
            <mxPoint x="1135" y="1143" as="targetPoint" />
          </mxGeometry>
        </mxCell>
        <mxCell id="J_OxuVLnSDbP4lyqpmxo-103" value="" style="endArrow=classic;html=1;" edge="1" parent="1" target="J_OxuVLnSDbP4lyqpmxo-104">
          <mxGeometry width="50" height="50" relative="1" as="geometry">
            <mxPoint x="582" y="1144" as="sourcePoint" />
            <mxPoint x="1713" y="1205" as="targetPoint" />
            <Array as="points">
              <mxPoint x="1135" y="1144" />
              <mxPoint x="1713" y="1144" />
            </Array>
          </mxGeometry>
        </mxCell>
        <mxCell id="J_OxuVLnSDbP4lyqpmxo-104" value="其他字段手动输入&lt;br&gt;&lt;div style=&quot;text-align: left&quot;&gt;&lt;br&gt;&lt;/div&gt;&lt;font color=&quot;#ff3333&quot;&gt;学员姓名，身份证号，性别，生日，户籍&lt;/font&gt;，联系电话，所属驾校，注册时间" style="rounded=0;whiteSpace=wrap;html=1;" vertex="1" parent="1">
          <mxGeometry x="1599.5" y="1220" width="227" height="86" as="geometry" />
        </mxCell>
        <mxCell id="J_OxuVLnSDbP4lyqpmxo-204" value="" style="endArrow=classic;html=1;exitX=0.5;exitY=1;exitDx=0;exitDy=0;entryX=0.5;entryY=0;entryDx=0;entryDy=0;" edge="1" parent="1" source="J_OxuVLnSDbP4lyqpmxo-104" target="J_OxuVLnSDbP4lyqpmxo-90">
          <mxGeometry width="50" height="50" relative="1" as="geometry">
            <mxPoint x="1710" y="1320" as="sourcePoint" />
            <mxPoint x="1210" y="2360" as="targetPoint" />
            <Array as="points">
              <mxPoint x="1720" y="2380" />
              <mxPoint x="1188" y="2380" />
            </Array>
          </mxGeometry>
        </mxCell>
      </root>
    </mxGraphModel>
  </diagram>
</mxfile>
